<svg xmlns="http://www.w3.org/2000/svg" viewBox="0 0 49.25 49.25"><defs><style>.cls-1{fill:#040204;}</style></defs><title>Behance iconIcon</title><g id="Layer_2" data-name="Layer 2"><g id="Layer_1-2" data-name="Layer 1"><path class="cls-1" d="M34.31,22.16a3.68,3.68,0,0,0-3.62,3.16h6.75A3.05,3.05,0,0,0,34.31,22.16Z"/><path class="cls-1" d="M19,25.32H13v5.5H18.7c.85,0,2.46-.27,2.46-2.67C21.16,25.29,19,25.32,19,25.32Z"/><path class="cls-1" d="M24.62,0A24.63,24.63,0,1,0,49.25,24.62,24.62,24.62,0,0,0,24.62,0Zm5.19,15.13h8.48v2.53H29.81ZM25.52,28.4c0,6.27-6.52,6.07-6.52,6.07H8.31V13.92H19c3.25,0,5.81,1.79,5.81,5.47s-3.13,3.91-3.13,3.91C25.81,23.3,25.52,28.4,25.52,28.4Zm15.86-.33H30.73a3.34,3.34,0,0,0,3.62,3.57c3.41,0,3.29-2.21,3.29-2.21h3.62c0,5.87-7,5.47-7,5.47-8.44,0-7.89-7.86-7.89-7.86s0-7.89,7.89-7.89C42.55,19.15,41.38,28.07,41.38,28.07Z"/><path class="cls-1" d="M20.45,19.71c0-2.14-1.45-2.14-1.45-2.14H13v4.59h5.61C19.6,22.16,20.45,21.85,20.45,19.71Z"/></g></g></svg>