<svg xmlns="http://www.w3.org/2000/svg" viewBox="0 0 49.25 49.25"><defs><style>.cls-1{fill:#040204;}</style></defs><title>Instagram iconIcon</title><g id="Layer_2" data-name="Layer 2"><g id="Layer_1-2" data-name="Layer 1"><path class="cls-1" d="M24.41,20.45a4.4,4.4,0,1,0,4.39,4.39A4.4,4.4,0,0,0,24.41,20.45Z"/><path class="cls-1" d="M29.93,14.08h-11A5.39,5.39,0,0,0,15,15.49a5.37,5.37,0,0,0-1.44,3.91v11a5.38,5.38,0,0,0,1.5,4A5.46,5.46,0,0,0,19,35.76H29.87a5.47,5.47,0,0,0,3.93-1.4,5.33,5.33,0,0,0,1.45-3.92v-11a5.32,5.32,0,0,0-1.43-3.87A5.32,5.32,0,0,0,29.93,14.08Zm-5.52,17.6a6.84,6.84,0,1,1,6.84-6.84A6.85,6.85,0,0,1,24.41,31.68ZM31.5,19.39a1.55,1.55,0,1,1,1.56-1.55A1.55,1.55,0,0,1,31.5,19.39Z"/><path class="cls-1" d="M24.62,0A24.63,24.63,0,1,0,49.25,24.62,24.62,24.62,0,0,0,24.62,0ZM37.7,30.44a7.71,7.71,0,0,1-2.19,5.67,7.89,7.89,0,0,1-5.64,2.1H19a7.86,7.86,0,0,1-5.6-2.11,7.75,7.75,0,0,1-2.23-5.72v-11a7.35,7.35,0,0,1,7.77-7.77h11a7.74,7.74,0,0,1,5.63,2.17,7.76,7.76,0,0,1,2.14,5.6Z"/></g></g></svg>