<svg xmlns="http://www.w3.org/2000/svg" viewBox="0 0 49.25 49.25"><defs><style>.cls-1{fill:#231f20;}</style></defs><title>LinkedIn iconIcon</title><g id="Layer_2" data-name="Layer 2"><g id="Layer_1-2" data-name="Layer 1"><path class="cls-1" d="M24.63,0A24.63,24.63,0,1,0,49.25,24.63,24.63,24.63,0,0,0,24.63,0ZM38.34,36.59a2,2,0,0,1-2,2H12.89a2,2,0,0,1-2-2V12.9a2,2,0,0,1,2-2H36.31a2,2,0,0,1,2,2Z"/><path class="cls-1" d="M29.38,21.29a4.1,4.1,0,0,0-3.74,2.06v0h0l0,0V21.58H21.49c.05,1.17,0,12.48,0,12.48h4.15v-7a2.82,2.82,0,0,1,.13-1,2.28,2.28,0,0,1,2.13-1.52c1.51,0,2.11,1.15,2.11,2.82v6.68h4.15V26.9C34.16,23.07,32.11,21.29,29.38,21.29Z"/><path class="cls-1" d="M17.14,15.56a2.16,2.16,0,1,0-.05,4.31h0a2.16,2.16,0,1,0,0-4.31Z"/><rect class="cls-1" x="15.04" y="21.58" width="4.15" height="12.48"/></g></g></svg>