<svg xmlns="http://www.w3.org/2000/svg" viewBox="0 0 49.25 49.25"><defs><style>.cls-1{fill:#040204;}</style></defs><title>Youtube iconIcon</title><g id="Layer_2" data-name="Layer 2"><g id="Layer_1-2" data-name="Layer 1"><polygon class="cls-1" points="14.11 26.7 15.89 26.7 15.89 35.55 17.62 35.55 17.62 26.7 19.4 26.7 19.4 25.19 14.11 25.19 14.11 26.7"/><path class="cls-1" d="M24.69,19.34a.78.78,0,0,0,.56-.19.69.69,0,0,0,.21-.53V14a.55.55,0,0,0-.22-.45.81.81,0,0,0-.55-.17.72.72,0,0,0-.51.17A.56.56,0,0,0,24,14v4.59a.7.7,0,0,0,.19.53A.67.67,0,0,0,24.69,19.34Z"/><path class="cls-1" d="M28.49,27.81a1.5,1.5,0,0,0-.7.19,2.44,2.44,0,0,0-.66.53V25.19H25.59V35.55h1.54V35a1.94,1.94,0,0,0,.65.52,1.87,1.87,0,0,0,.8.16,1.26,1.26,0,0,0,1-.43A1.89,1.89,0,0,0,30,34V29.73a2.28,2.28,0,0,0-.38-1.43A1.36,1.36,0,0,0,28.49,27.81Zm-.08,6a.79.79,0,0,1-.14.52.48.48,0,0,1-.41.17.81.81,0,0,1-.37-.09,1.06,1.06,0,0,1-.36-.27V29.34a.83.83,0,0,1,.32-.23.68.68,0,0,1,.8.12,1,1,0,0,1,.16.59Z"/><path class="cls-1" d="M22.91,33.72a2.32,2.32,0,0,1-.48.41.93.93,0,0,1-.42.16.39.39,0,0,1-.32-.12.66.66,0,0,1-.09-.39V27.91H20.07V34.3a1.65,1.65,0,0,0,.27,1,1,1,0,0,0,.8.34,2,2,0,0,0,.89-.24,3.71,3.71,0,0,0,.88-.71v.83h1.53V27.91H22.91Z"/><path class="cls-1" d="M24.62,0A24.63,24.63,0,1,0,49.25,24.63,24.63,24.63,0,0,0,24.62,0Zm4,12.16h1.72v6.46a.69.69,0,0,0,.11.43.42.42,0,0,0,.35.14,1,1,0,0,0,.48-.18,2.09,2.09,0,0,0,.53-.46V12.16h1.73v8.43H31.79v-.93a3.54,3.54,0,0,1-1,.78,2.11,2.11,0,0,1-1,.27,1.09,1.09,0,0,1-.9-.38,1.77,1.77,0,0,1-.31-1.13Zm-6.39,1.93a1.92,1.92,0,0,1,.7-1.56A2.79,2.79,0,0,1,24.78,12a2.52,2.52,0,0,1,1.75.61,2,2,0,0,1,.68,1.58v4.35a2.18,2.18,0,0,1-.67,1.69,2.63,2.63,0,0,1-1.84.62,2.56,2.56,0,0,1-1.81-.63,2.26,2.26,0,0,1-.68-1.71ZM17.53,9.17l1.25,4.56h.13L20.1,9.17h2l-2.25,6.68v4.74H17.88V16.06L15.57,9.17Zm22.54,24a5.52,5.52,0,0,1-5.52,5.52H15.37A5.52,5.52,0,0,1,9.85,33.2V28.76a5.52,5.52,0,0,1,5.52-5.52H34.55a5.52,5.52,0,0,1,5.52,5.52Z"/><path class="cls-1" d="M33.11,27.72a2.32,2.32,0,0,0-1.68.63A2.13,2.13,0,0,0,30.78,30V33.4a2.42,2.42,0,0,0,.59,1.73,2.14,2.14,0,0,0,1.62.64,2.29,2.29,0,0,0,1.72-.6,2.45,2.45,0,0,0,.57-1.77V33H33.71v.35a1.62,1.62,0,0,1-.15.87.64.64,0,0,1-.53.2.58.58,0,0,1-.52-.23,1.69,1.69,0,0,1-.15-.84V31.92h2.92V30a2.27,2.27,0,0,0-.56-1.66A2.13,2.13,0,0,0,33.11,27.72Zm.6,3H32.36V30a1.08,1.08,0,0,1,.16-.68.6.6,0,0,1,.52-.21.6.6,0,0,1,.51.21,1.08,1.08,0,0,1,.16.68Z"/></g></g></svg>